# xmcd
#
# Track frame offsets: 
#        150
#        13163
#        26478
#        41783
#        55318
#        106943
#        123873
#        158390
#        170955
#        182590
#        195368
#        207620
#        220865
#        234255
#
# Disc length: 3308 seconds
#
# Revision: 1
# Processed by: cddbd v1.5.2PL0 Copyright (c) Steve Scherf et al.
# Submitted via: ExactAudioCopyFreeDBPlugin 1.0
#
DISCID=ba0cea0e
DTITLE=Various Artist - Anthology of Country Blues Guitar
DYEAR=1900
DGENRE=Blues
TTITLE0=Mississippi John Hurt - Big Leg Blues
TTITLE1=Mississippi John Hurt - Ain't No Tellin'
TTITLE2=Mississippi John Hurt - Frankie
TTITLE3=Mississippi John Hurt -  Stack O'Lee Blues
TTITLE4=Rev.Gary Davis - Hestitation Blues
TTITLE5=Rev.Gary Davis - Soldiers Drill
TTITLE6=Rev.Gary Davis - Im Thowing Up My Hands
TTITLE7=Rev.Gary Davis - Baby,Let Me Lay On You
TTITLE8=Blind Boy Fuller - Jivin' Woman Blues
TTITLE9=Blind Boy Fuller -  I Crave My Pig Meat
TTITLE10=Blind Boy Fuller - Careless Love
TTITLE11=Blind Boy Fuller - You Can Never Tell
TTITLE12=Lonnie Johnson - Stomping 'Em Along Slow
TTITLE13=Lonnie Johnson - Woke Up With the Blues In My Fingers
EXTD=
EXTT0=
EXTT1=
EXTT2=
EXTT3=
EXTT4=
EXTT5=
EXTT6=
EXTT7=
EXTT8=
EXTT9=
EXTT10=
EXTT11=
EXTT12=
EXTT13=
PLAYORDER=
